<svg version="1.1" id="Layer_1" xmlns="http://www.w3.org/2000/svg" xmlns:xlink="http://www.w3.org/1999/xlink" x="0px" y="0px"
	 width="100%" viewBox="0 0 512 512" enable-background="new 0 0 512 512" xml:space="preserve">
<path fill="#0077CC" opacity="1.000000" stroke="none" 
	d="
M225.000000,1.000003 
	C246.020889,1.000000 267.041779,1.000000 288.364319,1.405914 
	C289.341949,2.198222 289.974731,2.784883 290.700287,2.941379 
	C304.695404,5.959842 318.860046,8.337389 332.667389,12.046782 
	C352.654266,17.416319 371.179718,26.352951 388.995605,36.922001 
	C414.522125,52.065254 436.429230,71.450943 455.295441,94.081894 
	C469.982910,111.700264 482.021301,131.164597 491.250183,152.376480 
	C501.080750,174.971207 508.225311,198.185471 511.081055,222.690094 
	C511.178162,223.523300 512.336365,224.232819 513.000000,225.000000 
	C513.000000,246.020889 513.000000,267.041779 512.594666,288.363892 
	C511.128296,294.196960 510.023773,299.720886 509.013947,305.262085 
	C505.192535,326.231415 498.654205,346.385315 489.634735,365.623260 
	C479.787659,386.626526 467.795227,406.467346 451.854065,423.448792 
	C440.102661,435.967041 428.124786,448.500122 414.840210,459.294159 
	C398.242981,472.779724 379.784241,483.706635 359.906342,492.097778 
	C337.837036,501.414001 315.208099,508.420349 291.325043,511.081604 
	C290.489166,511.174744 289.772308,512.336365 289.000000,513.000000 
	C267.979095,513.000000 246.958206,513.000000 225.636383,512.595337 
	C220.295563,511.132263 215.291626,509.841492 210.209595,509.055695 
	C187.777985,505.587402 166.593536,498.167053 146.193298,488.523712 
	C128.067810,479.955658 110.698746,469.839508 95.910797,456.232635 
	C81.472878,442.947906 67.015221,429.425537 54.461952,414.421417 
	C40.756584,398.040283 30.083235,379.377014 21.734449,359.494263 
	C12.519762,337.549408 5.550998,315.060699 2.918444,291.325623 
	C2.825733,290.489777 1.663667,289.772522 1.000001,289.000000 
	C1.000000,267.645782 1.000000,246.291550 1.400739,224.642120 
	C2.191458,223.672043 2.781581,223.041351 2.941775,222.315735 
	C5.958029,208.653351 8.313131,194.811523 12.025717,181.343292 
	C19.885735,152.829361 33.815113,127.188721 51.269943,103.465675 
	C63.579395,86.735764 78.022285,71.842194 94.022652,58.706982 
	C114.193939,42.147720 136.351807,28.615805 160.775574,19.041401 
	C180.772751,11.202266 201.264969,5.320963 222.680359,2.918318 
	C223.514816,2.824697 224.229507,1.663667 225.000000,1.000003 
M338.390686,268.750305 
	C334.905762,270.240051 331.283112,271.477631 327.972229,273.286041 
	C324.186462,275.353821 320.852112,278.268982 317.022308,280.231934 
	C272.682281,302.958374 229.362854,301.597687 187.421906,274.130341 
	C175.194565,266.122589 164.815186,266.123505 153.639069,275.338379 
	C125.904030,298.206329 107.535172,327.081940 98.537392,361.880859 
	C96.260406,370.687073 97.988693,378.693573 103.941704,385.709381 
	C116.088638,400.024963 129.804794,412.626038 145.495789,422.938263 
	C187.650711,450.642822 233.761261,461.876465 283.876770,455.018585 
	C334.717072,448.061523 376.625854,424.520630 410.057190,385.709320 
	C415.936005,378.884460 417.789551,370.934937 415.584167,362.357910 
	C406.365845,326.506012 387.323761,296.916748 358.360535,273.799500 
	C352.773285,269.339966 346.375793,267.429474 338.390686,268.750305 
M189.297302,108.795525 
	C169.615906,130.953812 161.467865,156.825760 166.441574,185.982925 
	C174.774673,234.833511 217.630264,266.872467 267.104584,262.137726 
	C318.705048,257.199493 357.132996,206.892502 347.590454,155.887390 
	C340.723877,119.185722 319.290680,93.976448 283.463043,83.174156 
	C247.634064,72.371475 216.143539,81.743332 189.297302,108.795525 
z"/>
<path fill="#000000" opacity="1.000000" stroke="none" 
	d="
M513.000000,224.531342 
	C512.336365,224.232819 511.178162,223.523300 511.081055,222.690094 
	C508.225311,198.185471 501.080750,174.971207 491.250183,152.376480 
	C482.021301,131.164597 469.982910,111.700264 455.295441,94.081894 
	C436.429230,71.450943 414.522125,52.065254 388.995605,36.922001 
	C371.179718,26.352951 352.654266,17.416319 332.667389,12.046782 
	C318.860046,8.337389 304.695404,5.959842 290.700287,2.941379 
	C289.974731,2.784883 289.341949,2.198222 288.832977,1.405914 
	C363.593719,1.000000 438.187408,1.000000 513.000000,1.000000 
	C513.000000,75.354088 513.000000,149.708389 513.000000,224.531342 
z"/>
<path fill="#000000" opacity="1.000000" stroke="none" 
	d="
M1.000001,289.468658 
	C1.663667,289.772522 2.825733,290.489777 2.918444,291.325623 
	C5.550998,315.060699 12.519762,337.549408 21.734449,359.494263 
	C30.083235,379.377014 40.756584,398.040283 54.461952,414.421417 
	C67.015221,429.425537 81.472878,442.947906 95.910797,456.232635 
	C110.698746,469.839508 128.067810,479.955658 146.193298,488.523712 
	C166.593536,498.167053 187.777985,505.587402 210.209595,509.055695 
	C215.291626,509.841492 220.295563,511.132263 225.167725,512.595337 
	C150.406296,513.000000 75.812599,513.000000 1.000000,513.000000 
	C1.000000,438.645905 1.000000,364.291626 1.000001,289.468658 
z"/>
<path fill="#000000" opacity="1.000000" stroke="none" 
	d="
M289.468658,513.000000 
	C289.772308,512.336365 290.489166,511.174744 291.325043,511.081604 
	C315.208099,508.420349 337.837036,501.414001 359.906342,492.097778 
	C379.784241,483.706635 398.242981,472.779724 414.840210,459.294159 
	C428.124786,448.500122 440.102661,435.967041 451.854065,423.448792 
	C467.795227,406.467346 479.787659,386.626526 489.634735,365.623260 
	C498.654205,346.385315 505.192535,326.231415 509.013947,305.262085 
	C510.023773,299.720886 511.128296,294.196960 512.594666,288.832550 
	C513.000000,363.593719 513.000000,438.187408 513.000000,513.000000 
	C438.645905,513.000000 364.291626,513.000000 289.468658,513.000000 
z"/>
<path fill="#000000" opacity="1.000000" stroke="none" 
	d="
M224.531342,1.000003 
	C224.229507,1.663667 223.514816,2.824697 222.680359,2.918318 
	C201.264969,5.320963 180.772751,11.202266 160.775574,19.041401 
	C136.351807,28.615805 114.193939,42.147720 94.022652,58.706982 
	C78.022285,71.842194 63.579395,86.735764 51.269943,103.465675 
	C33.815113,127.188721 19.885735,152.829361 12.025717,181.343292 
	C8.313131,194.811523 5.958029,208.653351 2.941775,222.315735 
	C2.781581,223.041351 2.191458,223.672043 1.400739,224.173462 
	C1.000000,149.739456 1.000000,75.478920 1.000000,1.000000 
	C75.354088,1.000000 149.708389,1.000000 224.531342,1.000003 
z"/>
<path fill="#FEFFFF" opacity="1.000000" stroke="none" 
	d="
M338.796631,268.663452 
	C346.375793,267.429474 352.773285,269.339966 358.360535,273.799500 
	C387.323761,296.916748 406.365845,326.506012 415.584167,362.357910 
	C417.789551,370.934937 415.936005,378.884460 410.057190,385.709320 
	C376.625854,424.520630 334.717072,448.061523 283.876770,455.018585 
	C233.761261,461.876465 187.650711,450.642822 145.495789,422.938263 
	C129.804794,412.626038 116.088638,400.024963 103.941704,385.709381 
	C97.988693,378.693573 96.260406,370.687073 98.537392,361.880859 
	C107.535172,327.081940 125.904030,298.206329 153.639069,275.338379 
	C164.815186,266.123505 175.194565,266.122589 187.421906,274.130341 
	C229.362854,301.597687 272.682281,302.958374 317.022308,280.231934 
	C320.852112,278.268982 324.186462,275.353821 327.972229,273.286041 
	C331.283112,271.477631 334.905762,270.240051 338.796631,268.663452 
z"/>
<path fill="#FEFFFF" opacity="1.000000" stroke="none" 
	d="
M189.540283,108.538239 
	C216.143539,81.743332 247.634064,72.371475 283.463043,83.174156 
	C319.290680,93.976448 340.723877,119.185722 347.590454,155.887390 
	C357.132996,206.892502 318.705048,257.199493 267.104584,262.137726 
	C217.630264,266.872467 174.774673,234.833511 166.441574,185.982925 
	C161.467865,156.825760 169.615906,130.953812 189.540283,108.538239 
z"/>
</svg>